<svg viewBox="0 0 100 100" xmlns="http://www.w3.org/2000/svg">
<circle cx="12.5" cy="12.5" r="1.8786796564403572" fill="#000" opacity="0.24238559158584194"/>
<circle cx="12.5" cy="25.0" r="2.197224362268005" fill="#000" opacity="0.356151557952859"/>
<circle cx="12.5" cy="37.5" r="2.41886116991581" fill="#000" opacity="0.43530756068421794"/>
<circle cx="12.5" cy="50.0" r="2.5" fill="#000" opacity="0.4642857142857143"/>
<circle cx="12.5" cy="62.5" r="2.41886116991581" fill="#000" opacity="0.43530756068421794"/>
<circle cx="12.5" cy="75.0" r="2.197224362268005" fill="#000" opacity="0.356151557952859"/>
<circle cx="12.5" cy="87.5" r="1.8786796564403572" fill="#000" opacity="0.24238559158584194"/>
<circle cx="25.0" cy="12.5" r="2.197224362268005" fill="#000" opacity="0.356151557952859"/>
<circle cx="25.0" cy="25.0" r="2.585786437626905" fill="#000" opacity="0.4949237277238946"/>
<circle cx="25.0" cy="37.5" r="2.881966011250105" fill="#000" opacity="0.6007021468750375"/>
<circle cx="25.0" cy="50.0" r="3.0" fill="#000" opacity="0.6428571428571428"/>
<circle cx="25.0" cy="62.5" r="2.881966011250105" fill="#000" opacity="0.6007021468750375"/>
<circle cx="25.0" cy="75.0" r="2.585786437626905" fill="#000" opacity="0.4949237277238946"/>
<circle cx="25.0" cy="87.5" r="2.197224362268005" fill="#000" opacity="0.356151557952859"/>
<circle cx="37.5" cy="12.5" r="2.41886116991581" fill="#000" opacity="0.43530756068421794"/>
<circle cx="37.5" cy="25.0" r="2.881966011250105" fill="#000" opacity="0.6007021468750375"/>
<circle cx="37.5" cy="37.5" r="3.2928932188134525" fill="#000" opacity="0.7474618638619472"/>
<circle cx="37.5" cy="50.0" r="3.5" fill="#000" opacity="0.8214285714285714"/>
<circle cx="37.5" cy="62.5" r="3.2928932188134525" fill="#000" opacity="0.7474618638619472"/>
<circle cx="37.5" cy="75.0" r="2.881966011250105" fill="#000" opacity="0.6007021468750375"/>
<circle cx="37.5" cy="87.5" r="2.41886116991581" fill="#000" opacity="0.43530756068421794"/>
<circle cx="50.0" cy="12.5" r="2.5" fill="#000" opacity="0.4642857142857143"/>
<circle cx="50.0" cy="25.0" r="3.0" fill="#000" opacity="0.6428571428571428"/>
<circle cx="50.0" cy="37.5" r="3.5" fill="#000" opacity="0.8214285714285714"/>
<circle cx="50.0" cy="50.0" r="4.0" fill="#000" opacity="1.0"/>
<circle cx="50.0" cy="62.5" r="3.5" fill="#000" opacity="0.8214285714285714"/>
<circle cx="50.0" cy="75.0" r="3.0" fill="#000" opacity="0.6428571428571428"/>
<circle cx="50.0" cy="87.5" r="2.5" fill="#000" opacity="0.4642857142857143"/>
<circle cx="62.5" cy="12.5" r="2.41886116991581" fill="#000" opacity="0.43530756068421794"/>
<circle cx="62.5" cy="25.0" r="2.881966011250105" fill="#000" opacity="0.6007021468750375"/>
<circle cx="62.5" cy="37.5" r="3.2928932188134525" fill="#000" opacity="0.7474618638619472"/>
<circle cx="62.5" cy="50.0" r="3.5" fill="#000" opacity="0.8214285714285714"/>
<circle cx="62.5" cy="62.5" r="3.2928932188134525" fill="#000" opacity="0.7474618638619472"/>
<circle cx="62.5" cy="75.0" r="2.881966011250105" fill="#000" opacity="0.6007021468750375"/>
<circle cx="62.5" cy="87.5" r="2.41886116991581" fill="#000" opacity="0.43530756068421794"/>
<circle cx="75.0" cy="12.5" r="2.197224362268005" fill="#000" opacity="0.356151557952859"/>
<circle cx="75.0" cy="25.0" r="2.585786437626905" fill="#000" opacity="0.4949237277238946"/>
<circle cx="75.0" cy="37.5" r="2.881966011250105" fill="#000" opacity="0.6007021468750375"/>
<circle cx="75.0" cy="50.0" r="3.0" fill="#000" opacity="0.6428571428571428"/>
<circle cx="75.0" cy="62.5" r="2.881966011250105" fill="#000" opacity="0.6007021468750375"/>
<circle cx="75.0" cy="75.0" r="2.585786437626905" fill="#000" opacity="0.4949237277238946"/>
<circle cx="75.0" cy="87.5" r="2.197224362268005" fill="#000" opacity="0.356151557952859"/>
<circle cx="87.5" cy="12.5" r="1.8786796564403572" fill="#000" opacity="0.24238559158584194"/>
<circle cx="87.5" cy="25.0" r="2.197224362268005" fill="#000" opacity="0.356151557952859"/>
<circle cx="87.5" cy="37.5" r="2.41886116991581" fill="#000" opacity="0.43530756068421794"/>
<circle cx="87.5" cy="50.0" r="2.5" fill="#000" opacity="0.4642857142857143"/>
<circle cx="87.5" cy="62.5" r="2.41886116991581" fill="#000" opacity="0.43530756068421794"/>
<circle cx="87.5" cy="75.0" r="2.197224362268005" fill="#000" opacity="0.356151557952859"/>
<circle cx="87.5" cy="87.5" r="1.8786796564403572" fill="#000" opacity="0.24238559158584194"/>

</svg>